<?xml version="1.0" encoding="iso-8859-1"?>
<!-- Generator: Adobe Illustrator 19.0.0, SVG Export Plug-In . SVG Version: 6.00 Build 0)  -->
<svg version="1.1" id="Capa_1" xmlns="http://www.w3.org/2000/svg" xmlns:xlink="http://www.w3.org/1999/xlink" x="0px" y="0px"
	 viewBox="0 0 512.002 512.002" style="enable-background:new 0 0 512.002 512.002;" xml:space="preserve">
<g>
	<g>
		<path d="M326.986,460.788L51.214,185.016c-11.715-11.715-30.71-11.715-42.426,0c-11.717,11.717-11.717,30.712,0,42.427
			l85.925,85.924c-19.248,29.105-16.075,68.778,9.534,94.387c25.609,25.609,65.283,28.782,94.387,9.534l85.926,85.926
			c11.715,11.715,30.71,11.715,42.426,0C338.703,491.499,338.703,472.504,326.986,460.788z"/>
	</g>
</g>
<g>
	<g>
		<path d="M111.41,160.359c-10.398,5.083-21.692,8.318-33.332,9.093l264.461,264.463c0.762-11.777,3.957-23.018,9.047-33.378
			L111.41,160.359z"/>
	</g>
</g>
<g>
	<g>
		<path d="M498.823,76.823c17.573-17.574,17.573-46.068,0-63.64c-17.575-17.575-46.067-17.575-63.641,0
			c-5.259,5.259-8.423,11.592-10.534,18.223C361.238-6.772,277.691,0.968,223.05,55.608l-86.983,86.982l233.346,233.346
			l86.982-86.982c54.642-54.642,62.384-138.184,24.205-201.597C487.23,85.246,493.564,82.082,498.823,76.823z M456.411,55.608
			c-5.874-5.852-5.876-15.357-0.015-21.196c5.852-5.874,15.357-5.876,21.196-0.015c5.875,5.852,5.877,15.357,0.015,21.196
			C471.755,61.467,462.25,61.469,456.411,55.608z"/>
	</g>
</g>
<g>
</g>
<g>
</g>
<g>
</g>
<g>
</g>
<g>
</g>
<g>
</g>
<g>
</g>
<g>
</g>
<g>
</g>
<g>
</g>
<g>
</g>
<g>
</g>
<g>
</g>
<g>
</g>
<g>
</g>
</svg>
